ply
format ascii 1.0
comment Created by Blender 2.78 (sub 0) - www.blender.org, source file: 'Poles.blend'
element vertex 96
property float x
property float y
property float z
property float nx
property float ny
property float nz
property float s
property float t
element face 26
property list uchar uint vertex_indices
end_header
0.100000 0.000000 -4.800000 -0.000000 0.000000 1.000000 0.904140 0.991003
0.100000 6.800000 -4.800000 -0.000000 0.000000 1.000000 0.904140 0.580099
-0.100000 6.800000 -4.800000 -0.000000 0.000000 1.000000 0.916122 0.580099
-0.100000 0.000000 -4.800000 -0.000000 0.000000 1.000000 0.916122 0.991003
-0.100000 0.000000 -4.800000 -1.000000 0.000000 0.000000 0.419387 0.012085
-0.100000 6.800000 -4.800000 -1.000000 0.000000 0.000000 0.011982 0.012085
-0.100000 7.000000 -5.000000 -1.000000 0.000000 0.000000 0.000000 0.000000
-0.100000 0.000000 -5.000000 -1.000000 0.000000 0.000000 0.419387 0.000000
-0.100000 0.000000 -5.000000 -0.000000 0.000000 -1.000000 0.988017 0.577011
-0.100000 7.000000 -5.000000 -0.000000 0.000000 -1.000000 0.988017 1.000000
0.100000 7.000000 -5.000000 -0.000000 0.000000 -1.000000 0.976035 1.000000
0.100000 0.000000 -5.000000 -0.000000 0.000000 -1.000000 0.976035 0.577011
0.100000 6.800000 -4.800000 1.000000 0.000000 -0.000000 0.431369 0.592184
0.100000 0.000000 -4.800000 1.000000 0.000000 -0.000000 0.838773 0.592184
0.100000 0.000000 -5.000000 1.000000 0.000000 -0.000000 0.838773 0.604270
0.100000 7.000000 -5.000000 1.000000 0.000000 -0.000000 0.419387 0.604270
0.100000 0.000000 -5.000000 0.000000 -1.000000 0.000000 0.023837 0.616355
0.100000 0.000000 -4.800000 0.000000 -1.000000 0.000000 0.011919 0.616355
-0.100000 0.000000 -4.800000 0.000000 -1.000000 0.000000 0.011919 0.604270
-0.100000 0.000000 -5.000000 0.000000 -1.000000 0.000000 0.023837 0.604270
-0.099999 0.000000 4.799999 -0.000000 0.000000 -1.000000 0.928105 0.580099
-0.099999 6.800000 4.799999 -0.000000 0.000000 -1.000000 0.928105 0.991003
0.100000 6.800000 4.799999 -0.000000 0.000000 -1.000000 0.916122 0.991003
0.100000 0.000000 4.799999 -0.000000 0.000000 -1.000000 0.916122 0.580099
0.100000 0.000000 4.799999 1.000000 0.000000 0.000000 0.838773 0.012085
0.100000 6.800000 4.799999 1.000000 0.000000 0.000000 0.431369 0.012085
0.100000 7.000000 4.999999 1.000000 0.000000 0.000000 0.419387 0.000000
0.100000 0.000000 4.999999 1.000000 0.000000 0.000000 0.838773 0.000000
0.100000 0.000000 4.999999 -0.000000 0.000000 1.000000 0.964052 1.000000
0.100000 7.000000 4.999999 -0.000000 0.000000 1.000000 0.964052 0.577011
-0.099999 7.000000 4.999999 -0.000000 0.000000 1.000000 0.976035 0.577011
-0.099999 0.000000 4.999999 -0.000000 0.000000 1.000000 0.976035 1.000000
-0.099999 0.000000 4.999999 -1.000000 0.000000 0.000000 0.419387 0.604270
-0.099999 7.000000 4.999999 -1.000000 0.000000 0.000000 0.000000 0.604270
-0.099999 6.800000 4.799999 -1.000000 0.000000 0.000000 0.011983 0.592184
-0.099999 0.000000 4.799999 -1.000000 0.000000 0.000000 0.419387 0.592184
0.100000 0.000000 4.799999 0.000000 -1.000000 0.000000 0.000000 0.604270
0.100000 0.000000 4.999999 0.000000 -1.000000 0.000000 0.011919 0.604270
-0.099999 0.000000 4.999999 0.000000 -1.000000 0.000000 0.011919 0.616355
-0.099999 0.000000 4.799999 0.000000 -1.000000 0.000000 0.000000 0.616355
0.100000 6.800000 -4.800000 0.000000 -1.000000 0.000000 0.988017 0.000000
0.100000 6.800000 4.799999 0.000000 -1.000000 0.000000 0.988017 0.577011
-0.099999 6.800000 4.799999 0.000000 -1.000000 0.000000 0.976035 0.577011
-0.100000 6.800000 -4.800000 0.000000 -1.000000 0.000000 0.976035 0.000000
-0.100000 7.000000 -5.000000 0.000000 1.000000 0.000000 0.862738 0.000000
-0.099999 7.000000 4.999999 0.000000 1.000000 0.000000 0.862738 0.604270
0.100000 7.000000 4.999999 0.000000 1.000000 0.000000 0.850756 0.604270
0.100000 7.000000 -5.000000 0.000000 1.000000 0.000000 0.850756 0.000000
0.100000 1.199999 4.800000 1.000000 0.000000 0.000000 0.862739 0.006089
0.100000 1.000000 4.800000 1.000000 0.000000 0.000000 0.873089 0.000000
0.100000 6.600000 -4.800000 1.000000 0.000000 0.000000 0.873089 0.671583
0.100000 6.800000 -4.800000 1.000000 0.000000 0.000000 0.862738 0.677672
-0.099999 6.600000 4.800000 -1.000000 0.000000 0.000000 0.893789 0.671583
-0.099999 6.800000 4.800000 -1.000000 0.000000 0.000000 0.883439 0.677672
-0.100000 1.200000 -4.800000 -1.000000 0.000000 0.000000 0.883439 0.006089
-0.100000 1.000000 -4.800000 -1.000000 0.000000 0.000000 0.893789 0.000000
-0.100000 6.800000 -4.800000 -1.000000 0.000000 0.000000 0.904140 0.677672
-0.100000 6.600000 -4.800000 -1.000000 0.000000 0.000000 0.893789 0.671583
-0.100000 1.000000 4.800000 -1.000000 0.000000 0.000000 0.893789 0.000000
-0.100000 1.199999 4.800000 -1.000000 0.000000 0.000000 0.904140 0.006089
0.100000 1.000000 -4.800000 1.000000 0.000000 -0.000000 0.873089 0.000000
0.100000 1.200000 -4.800000 1.000000 0.000000 -0.000000 0.883439 0.006089
0.100000 6.800000 4.800000 1.000000 0.000000 -0.000000 0.883439 0.677672
0.100000 6.600000 4.800000 1.000000 0.000000 -0.000000 0.873089 0.671583
-0.099999 6.600000 4.800000 0.000000 -0.863779 0.503871 0.850756 0.000000
-0.100000 1.000000 -4.800000 0.000000 -0.863779 0.503871 0.850756 0.611881
0.100000 1.000000 -4.800000 0.000000 -0.863779 0.503871 0.838773 0.611881
0.100000 6.600000 4.800000 0.000000 -0.863779 0.503871 0.838773 0.000000
-0.100000 1.200000 -4.800000 0.000000 0.863779 -0.503871 0.928105 0.000000
-0.099999 6.800000 4.800000 0.000000 0.863779 -0.503871 0.928105 0.580099
0.100000 6.800000 4.800000 0.000000 0.863779 -0.503871 0.916122 0.580099
0.100000 1.200000 -4.800000 0.000000 0.863779 -0.503871 0.916122 0.000000
0.100000 1.199999 4.800000 0.000000 0.863779 0.503871 0.940087 0.000000
0.100000 6.800000 -4.800000 0.000000 0.863779 0.503871 0.940087 0.580099
-0.100000 6.800000 -4.800000 0.000000 0.863779 0.503871 0.928105 0.580099
-0.100000 1.199999 4.800000 0.000000 0.863779 0.503871 0.928105 0.000000
0.100000 6.600000 -4.800000 0.000000 -0.863779 -0.503871 0.988017 0.542141
0.100000 1.000000 4.800000 0.000000 -0.863779 -0.503871 0.988017 0.000000
-0.100000 1.000000 4.800000 0.000000 -0.863779 -0.503871 1.000000 0.000000
-0.100000 6.600000 -4.800000 0.000000 -0.863779 -0.503871 1.000000 0.542141
0.100000 1.000000 4.800000 1.000000 0.000000 -0.000000 0.952070 0.000000
0.100000 0.800000 4.800000 1.000000 0.000000 -0.000000 0.964052 0.000000
0.100000 0.800001 -4.800000 1.000000 0.000000 -0.000000 0.964052 0.580099
0.100000 1.000001 -4.800000 1.000000 0.000000 -0.000000 0.952070 0.580099
-0.100000 1.000001 -4.800000 -1.000000 0.000000 -0.000000 0.904140 0.000000
-0.100000 0.800001 -4.800000 -1.000000 0.000000 -0.000000 0.916122 0.000000
-0.100000 0.800000 4.800000 -1.000000 0.000000 -0.000000 0.916122 0.580099
-0.100000 1.000000 4.800000 -1.000000 0.000000 -0.000000 0.904140 0.580099
0.100000 1.000000 4.800000 0.000000 1.000000 0.000000 0.952070 0.000000
0.100000 1.000001 -4.800000 0.000000 1.000000 0.000000 0.952070 0.580099
-0.100000 1.000001 -4.800000 0.000000 1.000000 0.000000 0.940087 0.580099
-0.100000 1.000000 4.800000 0.000000 1.000000 0.000000 0.940087 0.000000
0.100000 0.800001 -4.800000 0.000000 -1.000000 -0.000000 0.964053 0.577011
0.100000 0.800000 4.800000 0.000000 -1.000000 -0.000000 0.964052 0.000000
-0.100000 0.800000 4.800000 0.000000 -1.000000 -0.000000 0.976035 0.000000
-0.100000 0.800001 -4.800000 0.000000 -1.000000 -0.000000 0.976035 0.577011
4 0 1 2 3
4 4 5 6 7
4 8 9 10 11
4 12 13 14 15
4 16 17 18 19
4 20 21 22 23
4 24 25 26 27
4 28 29 30 31
4 32 33 34 35
4 36 37 38 39
4 5 34 33 6
4 15 26 25 12
4 40 41 42 43
4 44 45 46 47
4 48 49 50 51
4 52 53 54 55
4 56 57 58 59
4 60 61 62 63
4 64 65 66 67
4 68 69 70 71
4 72 73 74 75
4 76 77 78 79
4 80 81 82 83
4 84 85 86 87
4 88 89 90 91
4 92 93 94 95
