ply
format ascii 1.0
comment Created by Blender 2.78 (sub 0) - www.blender.org, source file: 'Poles.blend'
element vertex 400
property float x
property float y
property float z
property float nx
property float ny
property float nz
property float s
property float t
element face 126
property list uchar uint vertex_indices
end_header
-0.000000 2.000000 -0.320000 0.382682 0.003014 -0.923875 0.409666 0.076976
-0.000000 25.610611 -0.242971 0.382682 0.003014 -0.923875 0.435435 0.994314
0.171806 25.610611 -0.171806 0.382682 0.003014 -0.923875 0.420319 0.994599
0.226274 2.000000 -0.226274 0.382682 0.003014 -0.923875 0.379434 0.077547
0.226274 2.000000 -0.226274 0.923875 0.003014 -0.382682 0.105060 0.076919
0.171806 25.610611 -0.171806 0.923875 0.003014 -0.382682 0.109880 0.995190
0.242971 25.610611 0.000000 0.923875 0.003014 -0.382682 0.088334 0.995192
0.320000 2.000000 0.000000 0.923875 0.003014 -0.382682 0.061968 0.076923
0.320000 2.000000 0.000000 0.923875 0.003014 0.382682 0.061968 0.076923
0.242971 25.610611 0.000000 0.923875 0.003014 0.382682 0.088334 0.995192
0.171806 25.610611 0.171806 0.923875 0.003014 0.382682 0.072308 0.995417
0.226274 2.000000 0.226274 0.923875 0.003014 0.382682 0.029915 0.077373
0.226274 2.000000 0.226274 0.382682 0.003014 0.923875 0.338337 0.076871
0.171806 25.610611 0.171806 0.382682 0.003014 0.923875 0.342534 0.996287
-0.000000 25.610611 0.242971 0.382682 0.003014 0.923875 0.320959 0.996305
-0.000000 2.000000 0.320000 0.382682 0.003014 0.923875 0.295189 0.076907
-0.000000 2.000000 0.320000 -0.382682 0.003014 0.923875 0.295189 0.076907
-0.000000 25.610611 0.242971 -0.382682 0.003014 0.923875 0.320959 0.996305
-0.171806 25.610611 0.171806 -0.382682 0.003014 0.923875 0.305841 0.996456
-0.226274 2.000000 0.226274 -0.382682 0.003014 0.923875 0.264952 0.077207
-0.226274 2.000000 0.226274 -0.923875 0.003014 0.382682 0.222848 0.076923
-0.171806 25.610611 0.171806 -0.923875 0.003014 0.382682 0.234447 0.995191
-0.242971 25.610611 -0.000000 -0.923875 0.003014 0.382682 0.212901 0.995201
-0.320000 2.000000 -0.000000 -0.923875 0.003014 0.382682 0.179756 0.076943
-0.000000 25.610611 0.242971 0.286299 -0.663546 0.691187 0.320959 0.996305
0.171806 25.610611 0.171806 0.286299 -0.663546 0.691187 0.342534 0.996287
0.274890 25.762466 0.274890 0.286299 -0.663546 0.691187 0.348927 0.999971
-0.000000 25.762466 0.388753 0.286299 -0.663546 0.691187 0.314408 1.000000
-0.320000 2.000000 -0.000000 -0.923875 0.003014 -0.382682 0.179756 0.076943
-0.242971 25.610611 -0.000000 -0.923875 0.003014 -0.382682 0.212901 0.995201
-0.171806 25.610611 -0.171806 -0.923875 0.003014 -0.382682 0.196876 0.995431
-0.226274 2.000000 -0.226274 -0.923875 0.003014 -0.382682 0.147707 0.077403
-0.000000 25.610611 -0.242971 -0.382682 0.003014 -0.923875 0.435435 0.994314
-0.000000 2.000000 -0.320000 -0.382682 0.003014 -0.923875 0.409666 0.076976
-0.226274 2.000000 -0.226274 -0.382682 0.003014 -0.923875 0.452815 0.076937
-0.171806 25.610611 -0.171806 -0.382682 0.003014 -0.923875 0.457009 0.994294
0.226274 2.000000 -0.226274 0.795262 0.508968 -0.329408 0.105060 0.076919
0.320000 2.000000 0.000000 0.795262 0.508968 -0.329408 0.061968 0.076923
0.384000 1.900000 0.000000 0.795262 0.508968 -0.329408 0.058128 0.072947
0.271529 1.900000 -0.271529 0.795262 0.508968 -0.329408 0.109839 0.072941
0.384000 1.900000 0.000000 0.922433 0.055929 0.382085 0.058128 0.072947
0.271529 1.900000 0.271529 0.922433 0.055929 0.382085 0.019665 0.073486
0.352988 0.000000 0.352988 0.922433 0.055929 0.382085 0.000000 0.000709
0.499200 0.000000 0.000000 0.922433 0.055929 0.382085 0.050002 0.000008
-0.000000 2.000000 0.320000 -0.329408 0.508968 0.795262 0.729814 0.120630
-0.226274 2.000000 0.226274 -0.329408 0.508968 0.795262 0.729814 0.130012
-0.271529 1.900000 0.271529 -0.329408 0.508968 0.795262 0.712509 0.130865
-0.000000 1.900000 0.384000 -0.329408 0.508968 0.795262 0.712509 0.119606
-0.226274 2.000000 -0.226274 -0.329408 0.508968 -0.795262 0.452815 0.076937
-0.000000 2.000000 -0.320000 -0.329408 0.508968 -0.795262 0.409666 0.076976
-0.000000 1.900000 -0.384000 -0.329408 0.508968 -0.795262 0.405195 0.072975
-0.271529 1.900000 -0.271529 -0.329408 0.508968 -0.795262 0.456973 0.072927
-0.000000 2.000000 -0.320000 0.329408 0.508968 -0.795262 0.409666 0.076976
0.226274 2.000000 -0.226274 0.329408 0.508968 -0.795262 0.379434 0.077547
0.271529 1.900000 -0.271529 0.329408 0.508968 -0.795262 0.368916 0.073659
-0.000000 1.900000 -0.384000 0.329408 0.508968 -0.795262 0.405195 0.072975
0.320000 2.000000 0.000000 0.795262 0.508968 0.329408 0.061968 0.076923
0.226274 2.000000 0.226274 0.795262 0.508968 0.329408 0.029915 0.077373
0.271529 1.900000 0.271529 0.795262 0.508968 0.329408 0.019665 0.073486
0.384000 1.900000 0.000000 0.795262 0.508968 0.329408 0.058128 0.072947
-0.226274 2.000000 0.226274 -0.795262 0.508968 0.329408 0.222848 0.076923
-0.320000 2.000000 -0.000000 -0.795262 0.508968 0.329408 0.179756 0.076943
-0.384000 1.900000 -0.000000 -0.795262 0.508968 0.329408 0.175887 0.072968
-0.271529 1.900000 0.271529 -0.795262 0.508968 0.329408 0.227598 0.072944
0.226274 2.000000 0.226274 0.329408 0.508968 0.795262 0.338337 0.076871
-0.000000 2.000000 0.320000 0.329408 0.508968 0.795262 0.295189 0.076907
-0.000000 1.900000 0.384000 0.329408 0.508968 0.795262 0.290719 0.072987
0.271529 1.900000 0.271529 0.329408 0.508968 0.795262 0.342497 0.072943
-0.320000 2.000000 -0.000000 -0.795262 0.508968 -0.329408 0.179756 0.076943
-0.226274 2.000000 -0.226274 -0.795262 0.508968 -0.329408 0.147707 0.077403
-0.271529 1.900000 -0.271529 -0.795262 0.508968 -0.329408 0.137428 0.073520
-0.384000 1.900000 -0.000000 -0.795262 0.508968 -0.329408 0.175887 0.072968
-0.352988 0.000000 -0.352988 -0.000000 -1.000000 0.000000 0.710220 0.197493
-0.000000 0.000000 -0.499200 -0.000000 -1.000000 0.000000 0.757736 0.187155
0.352988 0.000000 -0.352988 -0.000000 -1.000000 0.000000 0.824934 0.187176
0.499200 0.000000 0.000000 0.000000 -1.000000 -0.000000 0.872451 0.197544
0.352988 0.000000 0.352988 0.000000 -1.000000 -0.000000 0.872451 0.212185
-0.000000 0.000000 0.499200 0.000000 -1.000000 0.000000 0.824934 0.222523
-0.352988 0.000000 0.352988 0.000000 -1.000000 0.000000 0.757736 0.222502
-0.499200 0.000000 -0.000000 0.000000 -1.000000 0.000000 0.710220 0.212134
-0.000000 1.900000 -0.384000 0.382084 0.055929 -0.922433 0.405195 0.072975
0.271529 1.900000 -0.271529 0.382084 0.055929 -0.922433 0.368916 0.073659
0.352988 0.000000 -0.352988 0.382084 0.055929 -0.922433 0.348927 0.000952
-0.000000 0.000000 -0.499200 0.382084 0.055929 -0.922433 0.396089 0.000062
-0.271529 1.900000 -0.271529 -0.382084 0.055929 -0.922433 0.456973 0.072927
-0.000000 1.900000 -0.384000 -0.382084 0.055929 -0.922433 0.405195 0.072975
-0.000000 0.000000 -0.499200 -0.382084 0.055929 -0.922433 0.396089 0.000062
-0.352988 0.000000 -0.352988 -0.382084 0.055929 -0.922433 0.463401 0.000000
-0.271529 1.900000 0.271529 -0.922433 0.055929 0.382084 0.227598 0.072944
-0.384000 1.900000 -0.000000 -0.922433 0.055929 0.382084 0.175887 0.072968
-0.499200 0.000000 -0.000000 -0.922433 0.055929 0.382084 0.167223 0.000031
-0.352988 0.000000 0.352988 -0.922433 0.055929 0.382084 0.234447 0.000000
0.271529 1.900000 0.271529 0.382084 0.055929 0.922433 0.342497 0.072943
-0.000000 1.900000 0.384000 0.382084 0.055929 0.922433 0.290719 0.072987
-0.000000 0.000000 0.499200 0.382084 0.055929 0.922433 0.281616 0.000056
0.352988 0.000000 0.352988 0.382084 0.055929 0.922433 0.348927 0.000000
0.271529 1.900000 -0.271529 0.922433 0.055929 -0.382085 0.109839 0.072941
0.384000 1.900000 0.000000 0.922433 0.055929 -0.382085 0.058128 0.072947
0.499200 0.000000 0.000000 0.922433 0.055929 -0.382085 0.050002 0.000008
0.352988 0.000000 -0.352988 0.922433 0.055929 -0.382085 0.117226 0.000000
-0.384000 1.900000 -0.000000 -0.922434 0.055929 -0.382084 0.175887 0.072968
-0.271529 1.900000 -0.271529 -0.922434 0.055929 -0.382084 0.137428 0.073520
-0.352988 0.000000 -0.352988 -0.922434 0.055929 -0.382084 0.117226 0.000750
-0.499200 0.000000 -0.000000 -0.922434 0.055929 -0.382084 0.167223 0.000031
-0.000000 1.900000 0.384000 -0.382084 0.055929 0.922433 0.290719 0.072987
-0.271529 1.900000 0.271529 -0.382084 0.055929 0.922433 0.254435 0.073347
-0.352988 0.000000 0.352988 -0.382084 0.055929 0.922433 0.234447 0.000525
-0.000000 0.000000 0.499200 -0.382084 0.055929 0.922433 0.281616 0.000056
0.645881 25.837402 -0.469255 0.163356 -0.984244 -0.067664 0.606021 0.053107
0.388753 25.762466 0.000000 0.163356 -0.984244 -0.067664 0.583919 0.040554
0.274890 25.762466 -0.274890 0.163356 -0.984244 -0.067664 0.616672 0.042919
-0.171806 25.610611 -0.171806 -0.691188 -0.663545 -0.286299 0.640696 0.032887
-0.242971 25.610611 -0.000000 -0.691188 -0.663545 -0.286299 0.630997 0.028696
-0.388753 25.762466 -0.000000 -0.691188 -0.663545 -0.286299 0.642764 0.025732
-0.274890 25.762466 -0.274890 -0.691188 -0.663545 -0.286299 0.658282 0.032438
0.242971 25.610611 0.000000 0.691187 -0.663546 -0.286299 0.088334 0.995192
0.171806 25.610611 -0.171806 0.691187 -0.663546 -0.286299 0.109880 0.995190
0.274890 25.762466 -0.274890 0.691187 -0.663546 -0.286299 0.117225 0.998785
0.388753 25.762466 0.000000 0.691187 -0.663546 -0.286299 0.082751 0.998789
-0.171806 25.610611 0.171806 -0.286299 -0.663546 0.691187 0.610526 0.027218
-0.000000 25.610611 0.242971 -0.286299 -0.663546 0.691187 0.591275 0.029319
-0.000000 25.762466 0.388753 -0.286299 -0.663546 0.691187 0.579208 0.026728
-0.274890 25.762466 0.274890 -0.286299 -0.663546 0.691187 0.610011 0.023367
-0.000000 25.610611 -0.242971 -0.286299 -0.663546 -0.691187 0.435435 0.994314
-0.171806 25.610611 -0.171806 -0.286299 -0.663546 -0.691187 0.457009 0.994294
-0.274890 25.762466 -0.274890 -0.286299 -0.663546 -0.691187 0.463401 0.997831
-0.000000 25.762466 -0.388753 -0.286299 -0.663546 -0.691187 0.428882 0.997863
0.171806 25.610611 -0.171806 0.286299 -0.663546 -0.691187 0.614690 0.039438
-0.000000 25.610611 -0.242971 0.286299 -0.663546 -0.691187 0.633941 0.037337
-0.000000 25.762466 -0.388753 0.286299 -0.663546 -0.691187 0.647475 0.039557
0.274890 25.762466 -0.274890 0.286299 -0.663546 -0.691187 0.616672 0.042919
0.171806 25.610611 0.171806 0.691187 -0.663546 0.286299 0.584520 0.033768
0.242971 25.610611 0.000000 0.691187 -0.663546 0.286299 0.594219 0.037960
0.388753 25.762466 0.000000 0.691187 -0.663546 0.286299 0.583919 0.040554
0.274890 25.762466 0.274890 0.691187 -0.663546 0.286299 0.568401 0.033848
-0.242971 25.610611 -0.000000 -0.691188 -0.663545 0.286299 0.630997 0.028696
-0.171806 25.610611 0.171806 -0.691188 -0.663545 0.286299 0.610526 0.027218
-0.274890 25.762466 0.274890 -0.691188 -0.663545 0.286299 0.610011 0.023367
-0.388753 25.762466 -0.000000 -0.691188 -0.663545 0.286299 0.642764 0.025732
-0.798356 25.837408 0.000000 -0.179476 -0.980949 -0.074341 0.674127 0.017832
-0.274890 25.762466 -0.274890 -0.179476 -0.980949 -0.074341 0.658282 0.032438
-0.388753 25.762466 -0.000000 -0.179476 -0.980949 -0.074341 0.642764 0.025732
1.098847 26.450045 0.798349 0.700224 -0.661699 0.268031 0.463401 0.040082
0.645881 25.837402 0.469255 0.700224 -0.661699 0.268031 0.523619 0.037622
1.291766 26.330812 0.000000 0.700224 -0.661699 0.268031 0.518320 0.057077
-0.274890 25.762466 0.274890 -0.179476 -0.980949 0.074341 0.610011 0.023367
-0.798356 25.837408 0.000000 -0.179476 -0.980949 0.074341 0.674127 0.017832
-0.388753 25.762466 -0.000000 -0.179476 -0.980949 0.074341 0.642764 0.025732
-0.000000 25.762466 0.388753 -0.064717 -0.985597 0.156241 0.579208 0.026728
-0.246700 25.837402 0.759277 -0.064717 -0.985597 0.156241 0.565709 0.015820
-0.274890 25.762466 0.274890 -0.064717 -0.985597 0.156241 0.610011 0.023367
0.645881 25.837402 0.469255 0.086858 -0.973902 0.209693 0.523619 0.037622
-0.000000 25.762466 0.388753 0.086858 -0.973902 0.209693 0.579208 0.026728
0.274890 25.762466 0.274890 0.086858 -0.973902 0.209693 0.568401 0.033848
1.098847 26.450045 0.798349 0.904989 -0.330384 0.268031 0.463401 0.080624
1.291766 26.330812 0.000000 0.904989 -0.330384 0.268031 0.543798 0.077486
1.444246 27.129179 0.469257 0.904989 -0.330384 0.268031 0.483295 0.097157
-0.419714 26.450045 1.291768 0.024747 -0.330386 0.943521 0.761849 0.036022
0.399184 26.330811 1.228539 0.024747 -0.330386 0.943521 0.793805 0.017352
0.000000 27.129179 1.518568 0.024747 -0.330386 0.943521 0.845760 0.037853
-1.358247 26.450052 0.000000 -0.889697 -0.330385 0.315094 0.781669 0.135963
-1.045062 26.330812 0.759279 -0.889697 -0.330385 0.315094 0.876297 0.132294
-1.444246 27.129179 0.469257 -0.889697 -0.330385 0.315094 0.832362 0.152282
-0.419714 26.450045 -1.291768 -0.574602 -0.330387 -0.748783 0.542193 0.144131
-1.045062 26.330812 -0.759279 -0.574602 -0.330387 -0.748783 0.615943 0.132294
-0.892592 27.129179 -1.228547 -0.574602 -0.330387 -0.748783 0.626529 0.153141
1.098847 26.450045 -0.798349 0.534576 -0.330386 -0.777865 0.638047 0.081082
0.399184 26.330811 -1.228539 0.534576 -0.330386 -0.777865 0.712509 0.079532
0.892592 27.129179 -1.228547 0.534576 -0.330386 -0.777865 0.690220 0.098690
1.098847 26.450045 0.798349 0.802609 -0.125627 0.583126 0.853273 0.001145
1.444246 27.129179 0.469257 0.802609 -0.125627 0.583126 0.948045 0.000000
0.892592 27.129179 1.228547 0.802609 -0.125627 0.583126 0.899497 0.017353
-0.419714 26.450045 1.291768 -0.306569 -0.125629 0.943522 0.761849 0.036022
0.000000 27.129179 1.518568 -0.306569 -0.125629 0.943522 0.845760 0.037853
-0.892592 27.129179 1.228547 -0.306569 -0.125629 0.943522 0.807359 0.053672
-1.358247 26.450052 0.000000 -0.992077 -0.125628 0.000000 0.781669 0.135963
-1.444246 27.129179 0.469257 -0.992077 -0.125628 0.000000 0.832362 0.152282
-1.444246 27.129179 -0.469257 -0.992077 -0.125628 0.000000 0.729882 0.153609
-0.419714 26.450045 -1.291768 -0.306569 -0.125629 -0.943522 0.542193 0.144131
-0.892592 27.129179 -1.228547 -0.306569 -0.125629 -0.943522 0.626529 0.153141
0.000000 27.129179 -1.518568 -0.306569 -0.125629 -0.943522 0.532254 0.164815
1.098847 26.450045 -0.798349 0.802609 -0.125627 -0.583126 0.638047 0.081082
0.892592 27.129179 -1.228547 0.802609 -0.125627 -0.583126 0.690220 0.098690
1.444246 27.129179 -0.469257 0.802609 -0.125627 -0.583126 0.585949 0.097426
0.419714 27.808311 1.291768 0.408946 0.661698 0.628426 0.855459 0.119606
1.045062 27.927546 0.759279 0.408946 0.661698 0.628426 0.762418 0.119606
0.246700 28.420956 0.759277 0.408946 0.661698 0.628426 0.809072 0.103348
-1.098847 27.808311 0.798349 -0.471300 0.661698 0.583122 0.954834 0.085592
-0.399184 27.927547 1.228539 -0.471300 0.661698 0.583122 0.916610 0.104184
-0.645881 28.420956 0.469255 -0.471300 0.661698 0.583122 0.867483 0.083355
-1.098847 27.808311 -0.798349 -0.700224 0.661698 -0.268033 0.710220 0.171614
-1.291766 27.927546 0.000000 -0.700224 0.661698 -0.268033 0.790365 0.173237
-0.645881 28.420956 -0.469255 -0.700224 0.661698 -0.268033 0.766347 0.187155
0.419714 27.808311 -1.291768 0.038531 0.661698 -0.748780 0.542196 0.184065
-0.399184 27.927547 -1.228539 0.038531 0.661698 -0.748780 0.626531 0.176614
0.246700 28.420956 -0.759277 0.038531 0.661698 -0.748780 0.615945 0.193746
1.358247 27.808306 0.000000 0.724042 0.661696 -0.194735 0.535115 0.114548
1.045062 27.927546 -0.759279 0.724042 0.661696 -0.194735 0.629717 0.118361
0.798356 28.420950 0.000000 0.724042 0.661696 -0.194735 0.554111 0.131029
0.798356 28.420950 0.000000 0.268034 0.943523 -0.194734 0.713292 0.098777
0.246700 28.420956 -0.759277 0.268034 0.943523 -0.194734 0.712509 0.075958
0.000000 28.647745 0.000000 0.268034 0.943523 -0.194734 0.771881 0.084169
0.798356 28.420950 0.000000 0.491120 0.794658 -0.356820 0.554111 0.131029
1.045062 27.927546 -0.759279 0.491120 0.794658 -0.356820 0.629717 0.118361
0.246700 28.420956 -0.759277 0.491120 0.794658 -0.356820 0.658380 0.132294
1.045062 27.927546 -0.759279 0.408946 0.661698 -0.628426 0.629717 0.118361
0.419714 27.808311 -1.291768 0.408946 0.661698 -0.628426 0.712509 0.116699
0.246700 28.420956 -0.759277 0.408946 0.661698 -0.628426 0.658380 0.132294
0.246700 28.420956 -0.759277 -0.102380 0.943524 -0.315087 0.712509 0.075958
-0.645881 28.420956 -0.469255 -0.102380 0.943524 -0.315087 0.807804 0.066427
0.000000 28.647745 0.000000 -0.102380 0.943524 -0.315087 0.771881 0.084169
0.246700 28.420956 -0.759277 -0.187594 0.794658 -0.577346 0.615945 0.193746
-0.399184 27.927547 -1.228539 -0.187594 0.794658 -0.577346 0.626531 0.176614
-0.645881 28.420956 -0.469255 -0.187594 0.794658 -0.577346 0.710220 0.182072
-0.399184 27.927547 -1.228539 -0.471301 0.661698 -0.583122 0.626531 0.176614
-1.098847 27.808311 -0.798349 -0.471301 0.661698 -0.583122 0.702587 0.164205
-0.645881 28.420956 -0.469255 -0.471301 0.661698 -0.583122 0.710220 0.182072
-0.645881 28.420956 -0.469255 -0.331302 0.943525 0.000000 0.807804 0.066427
-0.645881 28.420956 0.469255 -0.331302 0.943525 0.000000 0.867483 0.083355
0.000000 28.647745 0.000000 -0.331302 0.943525 0.000000 0.771881 0.084169
-0.645881 28.420956 -0.469255 -0.607060 0.794656 0.000000 0.807804 0.066427
-1.291766 27.927546 0.000000 -0.607060 0.794656 0.000000 0.915341 0.067263
-0.645881 28.420956 0.469255 -0.607060 0.794656 0.000000 0.867483 0.083355
-1.291766 27.927546 0.000000 -0.700224 0.661698 0.268033 0.915341 0.067263
-1.098847 27.808311 0.798349 -0.700224 0.661698 0.268033 0.954834 0.085592
-0.645881 28.420956 0.469255 -0.700224 0.661698 0.268033 0.867483 0.083355
-0.645881 28.420956 0.469255 -0.102380 0.943524 0.315087 0.867483 0.083355
0.246700 28.420956 0.759277 -0.102380 0.943524 0.315087 0.809072 0.103348
0.000000 28.647745 0.000000 -0.102380 0.943524 0.315087 0.771881 0.084169
-0.645881 28.420956 0.469255 -0.187594 0.794658 0.577346 0.867483 0.083355
-0.399184 27.927547 1.228539 -0.187594 0.794658 0.577346 0.916610 0.104184
0.246700 28.420956 0.759277 -0.187594 0.794658 0.577346 0.809072 0.103348
-0.399184 27.927547 1.228539 0.038531 0.661698 0.748780 0.916610 0.104184
0.419714 27.808311 1.291768 0.038531 0.661698 0.748780 0.855459 0.119606
0.246700 28.420956 0.759277 0.038531 0.661698 0.748780 0.809072 0.103348
0.246700 28.420956 0.759277 0.268034 0.943523 0.194734 0.809072 0.103348
0.798356 28.420950 0.000000 0.268034 0.943523 0.194734 0.713292 0.098777
0.000000 28.647745 0.000000 0.268034 0.943523 0.194734 0.771881 0.084169
0.246700 28.420956 0.759277 0.491120 0.794658 0.356820 0.809072 0.103348
1.045062 27.927546 0.759279 0.491120 0.794658 0.356820 0.762418 0.119606
0.798356 28.420950 0.000000 0.491120 0.794658 0.356820 0.713292 0.098777
1.045062 27.927546 0.759279 0.724042 0.661696 0.194735 0.463617 0.117925
1.358247 27.808306 0.000000 0.724042 0.661696 0.194735 0.535115 0.114548
0.798356 28.420950 0.000000 0.724042 0.661696 0.194735 0.554111 0.131029
1.444246 27.129179 -0.469257 0.889697 0.330385 -0.315094 0.585949 0.097426
1.045062 27.927546 -0.759279 0.889697 0.330385 -0.315094 0.629717 0.118361
1.358247 27.808306 0.000000 0.889697 0.330385 -0.315094 0.535115 0.114548
1.444246 27.129179 -0.469257 0.794656 0.187595 -0.577348 0.585949 0.097426
0.892592 27.129179 -1.228547 0.794656 0.187595 -0.577348 0.690220 0.098690
1.045062 27.927546 -0.759279 0.794656 0.187595 -0.577348 0.629717 0.118361
0.892592 27.129179 -1.228547 0.574601 0.330388 -0.748784 0.690220 0.098690
0.419714 27.808311 -1.291768 0.574601 0.330388 -0.748784 0.712509 0.116699
1.045062 27.927546 -0.759279 0.574601 0.330388 -0.748784 0.629717 0.118361
0.000000 27.129179 -1.518568 -0.024746 0.330386 -0.943521 0.532254 0.164815
-0.399184 27.927547 -1.228539 -0.024746 0.330386 -0.943521 0.626531 0.176614
0.419714 27.808311 -1.291768 -0.024746 0.330386 -0.943521 0.542196 0.184065
0.000000 27.129179 -1.518568 -0.303531 0.187597 -0.934171 0.532254 0.164815
-0.892592 27.129179 -1.228547 -0.303531 0.187597 -0.934171 0.626529 0.153141
-0.399184 27.927547 -1.228539 -0.303531 0.187597 -0.934171 0.626531 0.176614
-0.892592 27.129179 -1.228547 -0.534576 0.330387 -0.777864 0.626529 0.153141
-1.098847 27.808311 -0.798349 -0.534576 0.330387 -0.777864 0.702587 0.164205
-0.399184 27.927547 -1.228539 -0.534576 0.330387 -0.777864 0.626531 0.176614
-1.444246 27.129179 -0.469257 -0.904989 0.330385 -0.268032 0.729882 0.153609
-1.291766 27.927546 0.000000 -0.904989 0.330385 -0.268032 0.790365 0.173237
-1.098847 27.808311 -0.798349 -0.904989 0.330385 -0.268032 0.710220 0.171614
-1.444246 27.129179 -0.469257 -0.982246 0.187598 0.000000 0.729882 0.153609
-1.444246 27.129179 0.469257 -0.982246 0.187598 0.000000 0.832362 0.152282
-1.291766 27.927546 0.000000 -0.982246 0.187598 0.000000 0.790365 0.173237
-1.444246 27.129179 0.469257 -0.904989 0.330385 0.268032 0.832362 0.152282
-1.098847 27.808311 0.798349 -0.904989 0.330385 0.268032 0.884570 0.169356
-1.291766 27.927546 0.000000 -0.904989 0.330385 0.268032 0.790365 0.173237
-0.892592 27.129179 1.228547 -0.534576 0.330387 0.777864 0.936781 0.151922
-0.399184 27.927547 1.228539 -0.534576 0.330387 0.777864 0.959317 0.172654
-1.098847 27.808311 0.798349 -0.534576 0.330387 0.777864 0.884570 0.169356
-0.892592 27.129179 1.228547 -0.303531 0.187597 0.934171 0.807359 0.053672
0.000000 27.129179 1.518568 -0.303531 0.187597 0.934171 0.845760 0.037853
-0.399184 27.927547 1.228539 -0.303531 0.187597 0.934171 0.913051 0.053672
0.000000 27.129179 1.518568 -0.024746 0.330386 0.943521 0.845760 0.037853
0.419714 27.808311 1.291768 -0.024746 0.330386 0.943521 0.941664 0.036023
-0.399184 27.927547 1.228539 -0.024746 0.330386 0.943521 0.913051 0.053672
0.892592 27.129179 1.228547 0.574601 0.330388 0.748784 0.899497 0.017353
1.045062 27.927546 0.759279 0.574601 0.330388 0.748784 1.000000 0.020501
0.419714 27.808311 1.291768 0.574601 0.330388 0.748784 0.941664 0.036023
0.892592 27.129179 1.228547 0.794656 0.187595 0.577348 0.899497 0.017353
1.444246 27.129179 0.469257 0.794656 0.187595 0.577348 0.948045 0.000000
1.045062 27.927546 0.759279 0.794656 0.187595 0.577348 1.000000 0.020501
1.444246 27.129179 0.469257 0.889697 0.330385 0.315094 0.483295 0.097157
1.358247 27.808306 0.000000 0.889697 0.330385 0.315094 0.535115 0.114548
1.045062 27.927546 0.759279 0.889697 0.330385 0.315094 0.463617 0.117925
0.892592 27.129179 -1.228547 0.306569 0.125629 -0.943521 0.463402 0.174655
0.000000 27.129179 -1.518568 0.306569 0.125629 -0.943521 0.532254 0.164815
0.419714 27.808311 -1.291768 0.306569 0.125629 -0.943521 0.542196 0.184065
0.892592 27.129179 -1.228547 0.303531 -0.187597 -0.934171 0.463402 0.174655
0.399184 26.330811 -1.228539 0.303531 -0.187597 -0.934171 0.463401 0.151182
0.000000 27.129179 -1.518568 0.303531 -0.187597 -0.934171 0.532254 0.164815
0.399184 26.330811 -1.228539 0.024747 -0.330386 -0.943521 0.463401 0.151182
-0.419714 26.450045 -1.291768 0.024747 -0.330386 -0.943521 0.542193 0.144131
0.000000 27.129179 -1.518568 0.024747 -0.330386 -0.943521 0.532254 0.164815
-0.892592 27.129179 -1.228547 -0.802609 0.125627 -0.583126 0.626529 0.153141
-1.444246 27.129179 -0.469257 -0.802609 0.125627 -0.583126 0.710220 0.144093
-1.098847 27.808311 -0.798349 -0.802609 0.125627 -0.583126 0.702587 0.164205
-0.892592 27.129179 -1.228547 -0.794656 -0.187595 -0.577348 0.626529 0.153141
-1.045062 26.330812 -0.759279 -0.794656 -0.187595 -0.577348 0.615943 0.132294
-1.444246 27.129179 -0.469257 -0.794656 -0.187595 -0.577348 0.710220 0.144093
-1.045062 26.330812 -0.759279 -0.889697 -0.330385 -0.315094 0.710479 0.134441
-1.358247 26.450052 0.000000 -0.889697 -0.330385 -0.315094 0.781669 0.135963
-1.444246 27.129179 -0.469257 -0.889697 -0.330385 -0.315094 0.729882 0.153609
-1.444246 27.129179 0.469257 -0.802609 0.125628 0.583126 0.832362 0.152282
-0.892592 27.129179 1.228547 -0.802609 0.125628 0.583126 0.936781 0.151922
-1.098847 27.808311 0.798349 -0.802609 0.125628 0.583126 0.884570 0.169356
-1.444246 27.129179 0.469257 -0.794656 -0.187595 0.577348 0.832362 0.152282
-1.045062 26.330812 0.759279 -0.794656 -0.187595 0.577348 0.876297 0.132294
-0.892592 27.129179 1.228547 -0.794656 -0.187595 0.577348 0.936781 0.151922
-1.045062 26.330812 0.759279 -0.574602 -0.330387 0.748784 0.876297 0.132294
-0.419714 26.450045 1.291768 -0.574602 -0.330387 0.748784 0.959317 0.135350
-0.892592 27.129179 1.228547 -0.574602 -0.330387 0.748784 0.936781 0.151922
0.000000 27.129179 1.518568 0.306569 0.125629 0.943521 0.845760 0.037853
0.892592 27.129179 1.228547 0.306569 0.125629 0.943521 0.899497 0.017353
0.419714 27.808311 1.291768 0.306569 0.125629 0.943521 0.941664 0.036023
0.000000 27.129179 1.518568 0.303531 -0.187597 0.934171 0.845760 0.037853
0.399184 26.330811 1.228539 0.303531 -0.187597 0.934171 0.793805 0.017352
0.892592 27.129179 1.228547 0.303531 -0.187597 0.934171 0.899497 0.017353
0.399184 26.330811 1.228539 0.534576 -0.330386 0.777865 0.793805 0.017352
1.098847 26.450045 0.798349 0.534576 -0.330386 0.777865 0.853273 0.001145
0.892592 27.129179 1.228547 0.534576 -0.330386 0.777865 0.899497 0.017353
1.444246 27.129179 0.469257 0.992077 0.125628 -0.000000 0.483295 0.097157
1.444246 27.129179 -0.469257 0.992077 0.125628 -0.000000 0.585949 0.097426
1.358247 27.808306 0.000000 0.992077 0.125628 -0.000000 0.535115 0.114548
1.444246 27.129179 0.469257 0.982246 -0.187598 0.000000 0.483295 0.097157
1.291766 26.330812 0.000000 0.982246 -0.187598 0.000000 0.543798 0.077486
1.444246 27.129179 -0.469257 0.982246 -0.187598 0.000000 0.585949 0.097426
1.291766 26.330812 0.000000 0.904989 -0.330384 -0.268031 0.543798 0.077486
1.098847 26.450045 -0.798349 0.904989 -0.330384 -0.268031 0.638047 0.081082
1.444246 27.129179 -0.469257 0.904989 -0.330384 -0.268031 0.585949 0.097426
0.645881 25.837402 -0.469255 0.471299 -0.661699 -0.583123 0.606021 0.053107
0.399184 26.330811 -1.228539 0.471299 -0.661699 -0.583123 0.693743 0.060332
1.098847 26.450045 -0.798349 0.471299 -0.661699 -0.583123 0.603594 0.066427
0.645881 25.837402 -0.469255 0.187594 -0.794658 -0.577346 0.606021 0.053107
-0.246700 25.837402 -0.759277 0.187594 -0.794658 -0.577346 0.699041 0.040877
0.399184 26.330811 -1.228539 0.187594 -0.794658 -0.577346 0.693743 0.060332
-0.246700 25.837402 -0.759277 -0.038530 -0.661699 -0.748779 0.699041 0.040877
-0.419714 26.450045 -1.291768 -0.038530 -0.661699 -0.748779 0.761849 0.045619
0.399184 26.330811 -1.228539 -0.038530 -0.661699 -0.748779 0.693743 0.060332
-0.246700 25.837402 -0.759277 -0.408946 -0.661699 -0.628425 0.699041 0.040877
-1.045062 26.330812 -0.759279 -0.408946 -0.661699 -0.628425 0.761849 0.025056
-0.419714 26.450045 -1.291768 -0.408946 -0.661699 -0.628425 0.761849 0.045619
-0.246700 25.837402 -0.759277 -0.491120 -0.794658 -0.356820 0.699041 0.040877
-0.798356 25.837408 0.000000 -0.491120 -0.794658 -0.356820 0.674127 0.017832
-1.045062 26.330812 -0.759279 -0.491120 -0.794658 -0.356820 0.761849 0.025056
-0.798356 25.837408 0.000000 -0.724042 -0.661696 -0.194735 0.674127 0.017832
-1.358247 26.450052 0.000000 -0.724042 -0.661696 -0.194735 0.719463 0.006413
-1.045062 26.330812 -0.759279 -0.724042 -0.661696 -0.194735 0.761849 0.025056
-0.798356 25.837408 0.000000 -0.724042 -0.661696 0.194735 0.674127 0.017832
-1.045062 26.330812 0.759279 -0.724042 -0.661696 0.194735 0.628517 0.000000
-1.358247 26.450052 0.000000 -0.724042 -0.661696 0.194735 0.719463 0.006413
-0.798356 25.837408 0.000000 -0.491120 -0.794658 0.356820 0.674127 0.017832
-0.246700 25.837402 0.759277 -0.491120 -0.794658 0.356820 0.565709 0.015820
-1.045062 26.330812 0.759279 -0.491120 -0.794658 0.356820 0.628517 0.000000
-0.246700 25.837402 0.759277 -0.408946 -0.661699 0.628425 0.565709 0.015820
-0.419714 26.450045 1.291768 -0.408946 -0.661699 0.628425 0.535010 0.002990
-1.045062 26.330812 0.759279 -0.408946 -0.661699 0.628425 0.628517 0.000000
1.291766 26.330812 0.000000 0.700224 -0.661699 -0.268031 0.543798 0.077486
0.645881 25.837402 -0.469255 0.700224 -0.661699 -0.268031 0.622015 0.066427
1.098847 26.450045 -0.798349 0.700224 -0.661699 -0.268031 0.638047 0.081082
1.291766 26.330812 0.000000 0.607060 -0.794656 0.000000 0.518320 0.057077
0.645881 25.837402 0.469255 0.607060 -0.794656 0.000000 0.523619 0.037622
0.645881 25.837402 -0.469255 0.607060 -0.794656 0.000000 0.606021 0.053107
0.388753 25.762466 0.000000 0.163356 -0.984244 0.067664 0.583919 0.040554
0.645881 25.837402 0.469255 0.163356 -0.984244 0.067664 0.523619 0.037622
0.274890 25.762466 0.274890 0.163356 -0.984244 0.067664 0.568401 0.033848
-0.246700 25.837402 0.759277 -0.038530 -0.661699 0.748779 0.565709 0.015820
0.399184 26.330811 1.228539 -0.038530 -0.661699 0.748779 0.478008 0.019790
-0.419714 26.450045 1.291768 -0.038530 -0.661699 0.748779 0.535010 0.002990
-0.246700 25.837402 0.759277 0.187594 -0.794658 0.577346 0.565709 0.015820
0.645881 25.837402 0.469255 0.187594 -0.794658 0.577346 0.523619 0.037622
0.399184 26.330811 1.228539 0.187594 -0.794658 0.577346 0.478008 0.019790
0.645881 25.837402 0.469255 0.471299 -0.661699 0.583123 0.777033 0.000000
1.098847 26.450045 0.798349 0.471299 -0.661699 0.583123 0.853273 0.001145
0.399184 26.330811 1.228539 0.471299 -0.661699 0.583123 0.793805 0.017352
-0.246700 25.837402 -0.759277 -0.064717 -0.985597 -0.156241 0.699041 0.040877
-0.000000 25.762466 -0.388753 -0.064717 -0.985597 -0.156241 0.647475 0.039557
-0.274890 25.762466 -0.274890 -0.064717 -0.985597 -0.156241 0.658282 0.032438
-0.000000 25.762466 -0.388753 0.086858 -0.973902 -0.209693 0.647475 0.039557
0.645881 25.837402 -0.469255 0.086858 -0.973902 -0.209693 0.606021 0.053107
0.274890 25.762466 -0.274890 0.086858 -0.973902 -0.209693 0.616672 0.042919
0.645881 25.837402 -0.469255 0.279794 -0.960060 0.000000 0.606021 0.053107
0.645881 25.837402 0.469255 0.279794 -0.960060 0.000000 0.523619 0.037622
0.388753 25.762466 0.000000 0.279794 -0.960060 0.000000 0.583919 0.040554
-0.798356 25.837408 0.000000 -0.222548 -0.961421 -0.161686 0.674127 0.017832
-0.246700 25.837402 -0.759277 -0.222548 -0.961421 -0.161686 0.699041 0.040877
-0.274890 25.762466 -0.274890 -0.222548 -0.961421 -0.161686 0.658282 0.032438
-0.274890 25.762466 0.274890 -0.222548 -0.961421 0.161686 0.610011 0.023367
-0.246700 25.837402 0.759277 -0.222548 -0.961421 0.161686 0.565709 0.015820
-0.798356 25.837408 0.000000 -0.222548 -0.961421 0.161686 0.674127 0.017832
0.645881 25.837402 0.469255 0.080928 -0.965099 0.249068 0.523619 0.037622
-0.246700 25.837402 0.759277 0.080928 -0.965099 0.249068 0.565709 0.015820
-0.000000 25.762466 0.388753 0.080928 -0.965099 0.249068 0.579208 0.026728
-0.246700 25.837402 -0.759277 0.080928 -0.965099 -0.249068 0.699041 0.040877
0.645881 25.837402 -0.469255 0.080928 -0.965099 -0.249068 0.606021 0.053107
-0.000000 25.762466 -0.388753 0.080928 -0.965099 -0.249068 0.647475 0.039557
4 0 1 2 3
4 4 5 6 7
4 8 9 10 11
4 12 13 14 15
4 16 17 18 19
4 20 21 22 23
4 24 25 26 27
4 28 29 30 31
4 32 33 34 35
4 36 37 38 39
4 40 41 42 43
4 44 45 46 47
4 48 49 50 51
4 52 53 54 55
4 56 57 58 59
4 60 61 62 63
4 64 65 66 67
4 68 69 70 71
3 72 73 74
3 74 75 76
3 76 77 78
3 78 79 72
3 72 74 76
3 76 78 72
4 80 81 82 83
4 84 85 86 87
4 88 89 90 91
4 92 93 94 95
4 96 97 98 99
4 100 101 102 103
4 104 105 106 107
3 108 109 110
4 111 112 113 114
4 115 116 117 118
4 119 120 121 122
4 123 124 125 126
4 127 128 129 130
4 131 132 133 134
4 135 136 137 138
3 139 140 141
3 142 143 144
3 145 146 147
3 148 149 150
3 151 152 153
3 154 155 156
3 157 158 159
3 160 161 162
3 163 164 165
3 166 167 168
3 169 170 171
3 172 173 174
3 175 176 177
3 178 179 180
3 181 182 183
3 184 185 186
3 187 188 189
3 190 191 192
3 193 194 195
3 196 197 198
3 199 200 201
3 202 203 204
3 205 206 207
3 208 209 210
3 211 212 213
3 214 215 216
3 217 218 219
3 220 221 222
3 223 224 225
3 226 227 228
3 229 230 231
3 232 233 234
3 235 236 237
3 238 239 240
3 241 242 243
3 244 245 246
3 247 248 249
3 250 251 252
3 253 254 255
3 256 257 258
3 259 260 261
3 262 263 264
3 265 266 267
3 268 269 270
3 271 272 273
3 274 275 276
3 277 278 279
3 280 281 282
3 283 284 285
3 286 287 288
3 289 290 291
3 292 293 294
3 295 296 297
3 298 299 300
3 301 302 303
3 304 305 306
3 307 308 309
3 310 311 312
3 313 314 315
3 316 317 318
3 319 320 321
3 322 323 324
3 325 326 327
3 328 329 330
3 331 332 333
3 334 335 336
3 337 338 339
3 340 341 342
3 343 344 345
3 346 347 348
3 349 350 351
3 352 353 354
3 355 356 357
3 358 359 360
3 361 362 363
3 364 365 366
3 367 368 369
3 370 371 372
3 373 374 375
3 376 377 378
3 379 380 381
3 382 383 384
3 385 386 387
3 388 389 390
3 391 392 393
3 394 395 396
3 397 398 399
